# xmcd
#
# Track frame offsets: 
#        150
#        14167
#        28820
#        46492
#        64302
#        81150
#        97157
#        112787
#        129277
#        142965
#        154580
#
# Disc length: 2260 seconds
#
# Revision: 8
# Processed by: cddbd v1.5.2PL0 Copyright (c) Steve Scherf et al.
# Submitted via: ExactAudioCopy v0.99pb5
#
DISCID=9108d20b
DTITLE=Lorrie Morgan - Leave the Light On
DYEAR=1989
DGENRE=Country
TTITLE0=Train Wreck of Emotion
TTITLE1=Out of Your Shoes
TTITLE2=I'll Take the Memories
TTITLE3=Far Side of the Bed
TTITLE4=Dear Me
TTITLE5=Five Minutes
TTITLE6=He Talks to Me
TTITLE7=It's Too Late (to Love Me Now)
TTITLE8=Gonna Leave the Light On
TTITLE9=Eight Days a Week
TTITLE10=If I Didn't Love You
EXTD=YEAR: 1989
EXTT0=
EXTT1=
EXTT2=
EXTT3=
EXTT4=
EXTT5=
EXTT6=
EXTT7=
EXTT8=
EXTT9=
EXTT10=
PLAYORDER=
